#N canvas 174 477 872 395 10;
#X obj 361 205 tof/from_ascii_code 13;
#X msg 115 41 devices;
#X msg 177 42 devicename COM4 \, baud 57600 \, dtr 1;
#X obj 361 164 comport;
#X obj 177 12 loadbang;
#X obj 361 233 route a0;
#X obj 359 129 tof/to_ascii_code 13;
#X msg 359 99 d13 \$1;
#X obj 358 76 tgl 15 0 empty empty empty 17 7 0 10 -204786 -1 -1 0
1;
#X obj 361 267 nbx 5 14 -1e+037 1e+037 0 0 empty empty empty 0 -8 0
10 -204786 -1 -1 261 256;
#X connect 0 0 5 0;
#X connect 1 0 3 0;
#X connect 2 0 3 0;
#X connect 3 0 0 0;
#X connect 4 0 2 0;
#X connect 5 0 9 0;
#X connect 6 0 3 0;
#X connect 7 0 6 0;
#X connect 8 0 7 0;
